<?xml version="1.0" encoding="iso-8859-1"?>
<!-- Generator: Adobe Illustrator 19.0.0, SVG Export Plug-In . SVG Version: 6.00 Build 0)  -->
<svg xmlns="http://www.w3.org/2000/svg" xmlns:xlink="http://www.w3.org/1999/xlink" version="1.1" id="Layer_1" x="0px" y="0px" viewBox="0 0 511.999 511.999" style="enable-background:new 0 0 511.999 511.999;" xml:space="preserve" width="512px" height="512px">
<g>
	<g>
		<path d="M481.091,27.936H30.909C13.866,27.936,0,41.802,0,58.845v236.983v73.837c0,17.042,13.866,30.909,30.909,30.909H185.17    v22.491c0,20.617-16.773,37.39-37.39,37.39h-33.999c-6.519,0-11.803,5.285-11.803,11.803c0,6.518,5.284,11.803,11.803,11.803    h284.438c6.519,0,11.803-5.285,11.803-11.803c0-6.518-5.284-11.803-11.803-11.803h-33.999c-20.617,0-37.39-16.773-37.39-37.39    v-22.491H481.09c17.043,0,30.909-13.866,30.909-30.909v-73.837V58.845C512,41.802,498.134,27.936,481.091,27.936z M23.606,58.845    c0-4.027,3.276-7.304,7.304-7.304h450.181c4.027,0,7.304,3.275,7.304,7.304v225.18H23.606V58.845z M195.92,460.456    c8.046-10.336,12.856-23.307,12.856-37.39v-22.491h94.447v22.491h0.001c0,14.082,4.81,27.055,12.856,37.39H195.92z     M488.394,369.665c0,4.028-3.276,7.304-7.304,7.304H30.909c-4.027,0-7.304-3.275-7.304-7.304V307.63h464.789V369.665z" fill="#FFFFFF"/>
	</g>
</g>
<g>
	<g>
		<circle cx="256.004" cy="342.305" r="12.738" fill="#FFFFFF"/>
	</g>
</g>
<g>
	<g>
		<path d="M403.272,150.984c-3.609-4.627-10.283-5.451-14.909-1.844c-4.625,3.609-5.452,10.284-1.844,14.909    c1.715,2.198,1.715,5.268,0,7.465c-15.79,20.244-35.561,36.176-57.795,47.053c10.087-14.401,16.029-31.908,16.029-50.785    c0-18.788-5.884-36.218-15.883-50.58c11.344,5.558,22.076,12.417,31.931,20.498c1.63,1.336,3.242,2.71,4.793,4.084    c4.393,3.888,11.105,3.479,14.995-0.91c3.889-4.393,3.482-11.105-0.91-14.995c-1.75-1.55-3.568-3.099-5.406-4.605    C341.048,94.032,299.044,79.028,256,79.028c-57.927,0-111.606,26.228-147.272,71.957c-7.714,9.891-7.714,23.707,0,33.598    c35.666,45.728,89.344,71.956,147.272,71.956s111.606-26.228,147.272-71.957C410.987,174.691,410.987,160.875,403.272,150.984z     M183.273,218.57c-22.233-10.878-42.005-26.809-57.795-47.053c-1.714-2.198-1.714-5.268,0.001-7.465    c15.79-20.244,35.562-36.176,57.795-47.053c-10.088,14.402-16.031,31.908-16.031,50.786    C167.244,186.663,173.187,204.169,183.273,218.57z M256,235.294c-37.226,0-67.511-30.285-67.511-67.51    c0-37.226,30.285-67.511,67.511-67.511s67.511,30.285,67.511,67.511C323.511,205.009,293.226,235.294,256,235.294z" fill="#FFFFFF"/>
	</g>
</g>
<g>
	<g>
		<path d="M256,132.35c-19.538,0-35.434,15.896-35.434,35.434c0,19.537,15.896,35.433,35.434,35.433    c19.538,0,35.435-15.896,35.435-35.433C291.435,148.245,275.538,132.35,256,132.35z M256,181.971    c-7.824,0-14.189-6.365-14.189-14.188c0-7.823,6.365-14.189,14.189-14.189c7.824,0,14.189,6.366,14.189,14.189    S263.824,181.971,256,181.971z" fill="#FFFFFF"/>
	</g>
</g>
<g>
</g>
<g>
</g>
<g>
</g>
<g>
</g>
<g>
</g>
<g>
</g>
<g>
</g>
<g>
</g>
<g>
</g>
<g>
</g>
<g>
</g>
<g>
</g>
<g>
</g>
<g>
</g>
<g>
</g>
</svg>
